# xmcd
#
# Track frame offsets: 
#        150
#        16240
#        36065
#        61495
#        81640
#        97737
#        132625
#        145047
#        165635
#        192602
#        230700
#        250605
#        274710
#        290412
#
# Disc length: 4094 seconds
#
# Revision: 2
# Processed by: cddbd v1.5.2PL0 Copyright (c) Steve Scherf et al.
# Submitted via: ExactAudioCopy v0.99pb5
#
DISCID=c80ffc0e
DTITLE=Various Artist - Everybody Salsa
DYEAR=1998
DGENRE=Salsa
TTITLE0=Everybody Salsa - Que Barbara feat. Alfonso Jimenez
TTITLE1=Te Llamo - Victor Hugo and La Banda
TTITLE2=Chu Chu Chu - Roberto Pla and his Latin Ensemble
TTITLE3=There's Nothing Like This - Snowboy and The Latin Section
TTITLE4=Dame Mas Tiempo - Que Barbara feat. Alfonso Jimenez
TTITLE5=Baby I Love Your Way - Casa Latina Allstars
TTITLE6=Violin Pachanguero - Charanga del Norte
TTITLE7=Sabroso Sabroso - Dorance Lorza y Sexteto Café
TTITLE8=Suavito - Casa Latina Allstars
TTITLE9=42nd and Broadway - Snowboy
TTITLE10=Cumbia Dominique - Roberto Pla and his Latin Ensemble
TTITLE11=Santa Barbara Bendita - Candela
TTITLE12=No Me Cambies Lo Bailaon - Que Barbara feat. Alfonso Jimenez
TTITLE13=Tarde No Es - Victor Hugo and La Banda
EXTD=YEAR: 1998
EXTT0=
EXTT1=
EXTT2=
EXTT3=
EXTT4=
EXTT5=
EXTT6=
EXTT7=
EXTT8=
EXTT9=
EXTT10=
EXTT11=
EXTT12=
EXTT13=
PLAYORDER=
